<?xml version="1.0" encoding="UTF-8" standalone="no"?>
<svg
   style="isolation:isolate"
   viewBox="276.948 260.818 1260.227 321.455"
   version="1.1"
   id="svg13"
   sodipodi:docname="spaceheyinspanish.svg"
   inkscape:version="1.2.1 (9c6d41e4, 2022-07-14)"
   xmlns:inkscape="http://www.inkscape.org/namespaces/inkscape"
   xmlns:sodipodi="http://sodipodi.sourceforge.net/DTD/sodipodi-0.dtd"
   xmlns="http://www.w3.org/2000/svg"
   xmlns:svg="http://www.w3.org/2000/svg">
  <defs
     id="defs17">
    <rect
       x="341.85936"
       y="218.11886"
       width="872.47542"
       height="85.989164"
       id="rect1174" />
    <rect
       x="333.47017"
       y="213.92426"
       width="870.37813"
       height="96.475648"
       id="rect1064" />
  </defs>
  <sodipodi:namedview
     id="namedview15"
     pagecolor="#ffffff"
     bordercolor="#999999"
     borderopacity="1"
     inkscape:showpageshadow="0"
     inkscape:pageopacity="0"
     inkscape:pagecheckerboard="0"
     inkscape:deskcolor="#d1d1d1"
     showgrid="false"
     inkscape:zoom="0.23206445"
     inkscape:cx="976.02198"
     inkscape:cy="870.44786"
     inkscape:window-width="1367"
     inkscape:window-height="796"
     inkscape:window-x="0"
     inkscape:window-y="25"
     inkscape:window-maximized="0"
     inkscape:current-layer="svg13" />
  <clipPath
     id="a">
    <path
       fill="#FFF"
       d="M276.948 260.818h1260.227v321.455H276.948z"
       id="path2" />
  </clipPath>
  <g
     clip-path="url(#a)"
     fill="#FFF"
     id="g11">
    <path
       d="m 700.609,381.836 c 0,7.35667 -1.79033,13.65533 -5.371,18.896 -3.58067,5.24133 -8.87033,9.21267 -15.869,11.914 -6.99867,2.702 -15.511,4.053 -25.537,4.053 -9.57,0 -17.773,-1.46467 -24.609,-4.394 -6.836,-2.93 -11.88167,-6.59233 -15.137,-10.987 -3.25533,-4.394 -4.883,-8.80467 -4.883,-13.232 0,-2.93 1.04167,-5.43667 3.125,-7.52 2.08333,-2.08333 4.72,-3.125 7.91,-3.125 2.8,0 4.94867,0.68367 6.446,2.051 1.49733,1.36733 2.92933,3.288 4.296,5.762 2.73467,4.75267 6.00633,8.30067 9.815,10.644 3.80867,2.344 9.00067,3.516 15.576,3.516 5.33867,0 9.717,-1.188 13.135,-3.564 3.418,-2.37667 5.127,-5.095 5.127,-8.155 0,-4.68733 -1.774,-8.10533 -5.322,-10.254 -3.54867,-2.148 -9.392,-4.19867 -17.53,-6.152 -9.17933,-2.27867 -16.65,-4.67133 -22.412,-7.178 -5.76133,-2.506 -10.36733,-5.81 -13.818,-9.912 -3.45067,-4.10133 -5.176,-9.14667 -5.176,-15.136 0,-5.33867 1.595,-10.38433 4.785,-15.137 3.19,-4.75267 7.89367,-8.545 14.111,-11.377 6.218,-2.832 13.72133,-4.248 22.51,-4.248 6.90133,0 13.10267,0.716 18.604,2.148 5.50133,1.43267 10.091,3.35333 13.769,5.762 3.67867,2.40867 6.47833,5.078 8.399,8.008 1.92067,2.92933 2.881,5.794 2.881,8.594 0,3.05933 -1.02567,5.56567 -3.077,7.519 -2.05067,1.95333 -4.964,2.93 -8.74,2.93 -2.734,0 -5.06133,-0.78133 -6.982,-2.344 -1.92067,-1.56267 -4.118,-3.90633 -6.592,-7.031 -2.018,-2.60467 -4.39433,-4.688 -7.129,-6.25 -2.734,-1.56267 -6.445,-2.344 -11.133,-2.344 -4.81733,0 -8.821,1.02533 -12.011,3.076 -3.19067,2.05067 -4.786,4.606 -4.786,7.666 0,2.79933 1.172,5.09433 3.516,6.885 2.344,1.79 5.50167,3.271 9.473,4.443 3.97133,1.172 9.44,2.60433 16.406,4.297 8.268,2.01867 15.02267,4.42767 20.264,7.227 5.24067,2.79933 9.212,6.10333 11.914,9.912 2.70133,3.80867 4.052,8.15433 4.052,13.037 z m 47.168,-58.594 v 3.223 c 5.01333,-6.18467 10.22167,-10.72567 15.625,-13.623 5.404,-2.89733 11.524,-4.346 18.36,-4.346 8.20267,0 15.75467,2.116 22.656,6.348 6.90133,4.23133 12.35367,10.416 16.357,18.554 4.004,8.138 6.006,17.77367 6.006,28.907 0,8.20267 -1.15567,15.73833 -3.467,22.607 -2.31067,6.86867 -5.48433,12.63033 -9.521,17.285 -4.03667,4.65533 -8.80567,8.236 -14.307,10.742 -5.50133,2.50667 -11.40933,3.76 -17.724,3.76 -7.61733,0 -14.014,-1.53 -19.19,-4.59 -5.17533,-3.05933 -10.107,-7.55133 -14.795,-13.476 v 40.039 c 0,11.71867 -4.26433,17.578 -12.793,17.578 -5.01267,0 -8.333,-1.51367 -9.961,-4.541 -1.62733,-3.02733 -2.441,-7.438 -2.441,-13.232 V 323.438 c 0,-5.07867 1.10667,-8.871 3.32,-11.377 2.214,-2.50667 5.24133,-3.76 9.082,-3.76 3.776,0 6.85233,1.28567 9.229,3.857 2.376,2.572 3.564,6.26667 3.564,11.084 z m 52.246,38.77 c 0,-7.03133 -1.074,-13.07 -3.222,-18.116 -2.14867,-5.04533 -5.12733,-8.919 -8.936,-11.621 -3.80867,-2.70133 -8.024,-4.052 -12.646,-4.052 -7.35667,0 -13.558,2.897 -18.604,8.691 -5.04533,5.794 -7.568,14.32267 -7.568,25.586 0,10.612 2.50633,18.864 7.519,24.756 5.01333,5.892 11.231,8.838 18.653,8.838 4.42667,0 8.528,-1.286 12.304,-3.858 3.77667,-2.57133 6.804,-6.42867 9.082,-11.572 2.27867,-5.14333 3.418,-11.36067 3.418,-18.652 z m 115.528,39.648 c -6.44533,5.01333 -12.679,8.773 -18.701,11.279 -6.02267,2.50667 -12.77733,3.76 -20.264,3.76 -6.836,0 -12.842,-1.351 -18.018,-4.053 -5.17533,-2.70133 -9.163,-6.36333 -11.963,-10.986 -2.79933,-4.622 -4.199,-9.635 -4.199,-15.039 0,-7.29133 2.31133,-13.50867 6.934,-18.652 4.622,-5.14333 10.96967,-8.594 19.043,-10.352 1.69267,-0.39067 5.89167,-1.26967 12.597,-2.637 6.706,-1.36667 12.45167,-2.61967 17.237,-3.759 4.78533,-1.13933 9.97733,-2.523 15.576,-4.151 -0.32533,-7.03133 -1.74133,-12.19067 -4.248,-15.478 -2.50667,-3.288 -7.69867,-4.932 -15.576,-4.932 -6.77067,0 -11.865,0.944 -15.283,2.832 -3.418,1.888 -6.348,4.72 -8.79,8.496 -2.44133,3.776 -4.16633,6.26633 -5.175,7.471 -1.00933,1.20467 -3.174,1.807 -6.494,1.807 -2.99533,0 -5.58333,-0.96033 -7.764,-2.881 -2.18133,-1.92067 -3.272,-4.37833 -3.272,-7.373 0,-4.688 1.66033,-9.24533 4.981,-13.672 3.32,-4.42733 8.49567,-8.07333 15.527,-10.938 7.03133,-2.86467 15.788,-4.297 26.27,-4.297 11.71867,0 20.93067,1.38367 27.636,4.151 6.706,2.76667 11.44233,7.145 14.209,13.135 2.76733,5.98933 4.151,13.932 4.151,23.828 0,6.25 -0.0163,11.556 -0.049,15.918 -0.0327,4.362 -0.0813,9.21233 -0.146,14.551 0,5.01267 0.83,10.237 2.49,15.673 1.66,5.43667 2.49,8.936 2.49,10.498 0,2.73467 -1.28567,5.225 -3.857,7.471 -2.572,2.246 -5.48567,3.369 -8.741,3.369 -2.734,0 -5.43567,-1.28567 -8.105,-3.857 -2.66933,-2.572 -5.50133,-6.29933 -8.496,-11.182 z m -1.758,-34.765 v -3.809 c -3.906,1.432 -9.58633,2.94567 -17.041,4.541 -7.45467,1.59533 -12.61433,2.76733 -15.479,3.516 -2.864,0.74867 -5.59833,2.21333 -8.203,4.394 -2.604,2.18133 -3.906,5.225 -3.906,9.131 0,4.03667 1.53,7.471 4.59,10.303 3.06,2.832 7.064,4.248 12.012,4.248 5.27333,0 10.13967,-1.15567 14.599,-3.467 4.46,-2.31133 7.73167,-5.29 9.815,-8.936 2.40867,-4.036 3.613,-10.67633 3.613,-19.921 z m 148.828,16.796 c 0,3.32067 -0.9927,6.869 -2.978,10.645 -1.986,3.776 -5.0133,7.373 -9.082,10.791 -4.0693,3.418 -9.1963,6.16867 -15.381,8.252 -6.1853,2.08333 -13.1517,3.125 -20.899,3.125 -16.47133,0 -29.32933,-4.80133 -38.574,-14.404 -9.24467,-9.60333 -13.867,-22.47767 -13.867,-38.623 0,-10.938 2.116,-20.606 6.348,-29.004 4.23133,-8.39867 10.351,-14.893 18.359,-19.483 8.008,-4.59 17.5783,-6.885 28.711,-6.885 6.9007,0 13.232,1.00933 18.994,3.028 5.762,2.018 10.6447,4.622 14.648,7.812 4.004,3.19 7.064,6.59167 9.18,10.205 2.116,3.61333 3.174,6.98267 3.174,10.108 0,3.19 -1.1883,5.89167 -3.565,8.105 -2.376,2.214 -5.2567,3.321 -8.642,3.321 -2.2133,0 -4.0527,-0.56967 -5.518,-1.709 -1.4647,-1.13933 -3.1083,-2.97867 -4.931,-5.518 -3.2553,-4.948 -6.657,-8.659 -10.205,-11.133 -3.5487,-2.474 -8.0573,-3.711 -13.526,-3.711 -7.8773,0 -14.225,3.07633 -19.043,9.229 -4.81733,6.152 -7.226,14.56667 -7.226,25.244 0,5.01267 0.61833,9.61867 1.855,13.818 1.23733,4.19933 3.02767,7.78 5.371,10.742 2.344,2.96267 5.176,5.209 8.496,6.739 3.3207,1.53 6.9667,2.295 10.938,2.295 5.3387,0 9.9123,-1.237 13.721,-3.711 3.808,-2.474 7.177,-6.25 10.107,-11.328 1.6273,-2.99533 3.385,-5.33933 5.273,-7.032 1.888,-1.69267 4.1993,-2.539 6.934,-2.539 3.2553,0 5.957,1.237 8.105,3.711 2.1487,2.474 3.223,5.11067 3.223,7.91 z m 97.656,-14.648 h -52.148 c 0.065,6.05467 1.286,11.39333 3.662,16.016 2.376,4.622 5.5337,8.105 9.473,10.449 3.9387,2.34333 8.2843,3.515 13.037,3.515 3.19,0 6.1033,-0.37433 8.74,-1.123 2.6367,-0.74867 5.192,-1.92033 7.666,-3.515 2.474,-1.59533 4.7527,-3.30433 6.836,-5.127 2.0833,-1.82333 4.785,-4.29733 8.105,-7.422 1.3673,-1.172 3.3207,-1.758 5.86,-1.758 2.734,0 4.9473,0.74867 6.64,2.246 1.6933,1.49733 2.54,3.61333 2.54,6.348 0,2.40867 -0.9443,5.22433 -2.833,8.447 -1.888,3.22267 -4.736,6.315 -8.544,9.277 -3.8087,2.96267 -8.594,5.42067 -14.356,7.374 -5.7613,1.95267 -12.3857,2.929 -19.873,2.929 -17.1227,0 -30.4363,-4.88267 -39.941,-14.648 -9.5053,-9.766 -14.258,-23.01467 -14.258,-39.746 0,-7.878 1.1717,-15.186 3.515,-21.924 2.344,-6.73867 5.762,-12.51667 10.254,-17.334 4.4927,-4.818 10.0267,-8.51267 16.602,-11.084 6.5753,-2.572 13.867,-3.858 21.875,-3.858 10.4167,0 19.3523,2.19733 26.807,6.592 7.454,4.39467 13.0367,10.075 16.748,17.041 3.7107,6.96667 5.566,14.063 5.566,21.289 0,6.706 -1.9207,11.05167 -5.762,13.037 -3.8407,1.986 -9.2443,2.979 -16.211,2.979 z m -52.148,-15.137 h 48.34 c -0.6513,-9.11467 -3.109,-15.93433 -7.373,-20.459 -4.2647,-4.52467 -9.88,-6.787 -16.846,-6.787 -6.6407,0 -12.093,2.295 -16.357,6.885 -4.2647,4.59 -6.8527,11.377 -7.764,20.361 z m 122.656,-69.043 v 39.551 c 3.3853,-3.906 6.6893,-6.99833 9.912,-9.277 3.2227,-2.27867 6.7873,-3.98767 10.694,-5.127 3.906,-1.13933 8.105,-1.709 12.597,-1.709 6.7713,0 12.7773,1.43233 18.018,4.297 5.2407,2.86467 9.3583,7.03133 12.353,12.5 1.888,3.19 3.1577,6.75433 3.809,10.693 0.6513,3.93867 0.977,8.47967 0.977,13.623 v 51.074 c 0,5.33867 -1.221,9.37533 -3.663,12.11 -2.4413,2.734 -5.68,4.101 -9.716,4.101 -8.7893,0 -13.184,-5.40367 -13.184,-16.211 v -45.019 c 0,-8.52867 -1.2697,-15.088 -3.809,-19.678 -2.5387,-4.59 -7.3563,-6.885 -14.453,-6.885 -4.7527,0 -9.033,1.351 -12.841,4.053 -3.8087,2.702 -6.657,6.39667 -8.545,11.084 -1.4327,3.97133 -2.149,11.035 -2.149,21.191 v 35.254 c 0,5.27333 -1.188,9.29367 -3.564,12.061 -2.3767,2.76667 -5.6807,4.15 -9.912,4.15 -8.7893,0 -13.184,-5.40367 -13.184,-16.211 V 284.863 c 0,-5.40333 1.1557,-9.456 3.467,-12.158 2.3113,-2.702 5.5503,-4.053 9.717,-4.053 4.2313,0 7.5353,1.36733 9.912,4.102 2.376,2.734 3.564,6.77033 3.564,12.109 z m 169.141,84.18 h -52.149 c 0.065,6.05467 1.286,11.39333 3.662,16.016 2.3767,4.622 5.5343,8.105 9.473,10.449 3.9387,2.34333 8.2843,3.515 13.037,3.515 3.19,0 6.1033,-0.37433 8.74,-1.123 2.6373,-0.74867 5.1927,-1.92033 7.666,-3.515 2.474,-1.59533 4.7527,-3.30433 6.836,-5.127 2.0833,-1.82333 4.7853,-4.29733 8.106,-7.422 1.3673,-1.172 3.3203,-1.758 5.859,-1.758 2.7347,0 4.9483,0.74867 6.641,2.246 1.6927,1.49733 2.539,3.61333 2.539,6.348 0,2.40867 -0.944,5.22433 -2.832,8.447 -1.888,3.22267 -4.7363,6.315 -8.545,9.277 -3.8087,2.96267 -8.5937,5.42067 -14.355,7.374 -5.762,1.95267 -12.3867,2.929 -19.874,2.929 -17.122,0 -30.4357,-4.88267 -39.941,-14.648 -9.5053,-9.766 -14.258,-23.01467 -14.258,-39.746 0,-7.878 1.172,-15.186 3.516,-21.924 2.344,-6.73867 5.762,-12.51667 10.254,-17.334 4.492,-4.818 10.0257,-8.51267 16.601,-11.084 6.576,-2.572 13.8677,-3.858 21.875,-3.858 10.4167,0 19.3523,2.19733 26.807,6.592 7.4547,4.39467 13.0373,10.075 16.748,17.041 3.7107,6.96667 5.566,14.063 5.566,21.289 0,6.706 -1.9203,11.05167 -5.761,13.037 -3.8413,1.986 -9.245,2.979 -16.211,2.979 z m -52.149,-15.137 h 48.34 c -0.6507,-9.11467 -3.1083,-15.93433 -7.373,-20.459 -4.264,-4.52467 -9.8793,-6.787 -16.846,-6.787 -6.64,0 -12.0923,2.295 -16.357,6.885 -4.264,4.59 -6.852,11.377 -7.764,20.361 z m 116.016,66.114 2.441,-5.957 -32.812,-82.618 c -2.018,-4.75267 -3.027,-8.203 -3.027,-10.351 0,-2.27867 0.5857,-4.39467 1.757,-6.348 1.172,-1.95333 2.7833,-3.51567 4.834,-4.687 2.0513,-1.172 4.1837,-1.758 6.397,-1.758 3.8413,0 6.7383,1.22067 8.691,3.662 1.9533,2.44133 3.6787,5.94067 5.176,10.498 l 22.559,65.625 21.386,-61.035 c 1.6927,-4.948 3.2227,-8.82167 4.59,-11.621 1.3673,-2.8 2.816,-4.688 4.346,-5.664 1.53,-0.97667 3.6947,-1.465 6.494,-1.465 2.018,0 3.955,0.537 5.811,1.611 1.8553,1.074 3.2873,2.52267 4.296,4.346 1.0093,1.82267 1.514,3.74333 1.514,5.762 -0.2607,1.23667 -0.6837,2.99433 -1.269,5.273 -0.586,2.27867 -1.3023,4.59 -2.149,6.934 l -34.765,91.015 c -2.9953,8.008 -5.9253,14.29067 -8.79,18.848 -2.864,4.55733 -6.6563,8.05667 -11.377,10.498 -4.72,2.44133 -11.0837,3.662 -19.091,3.662 -7.8127,0 -13.672,-0.84633 -17.578,-2.539 -3.9067,-1.69267 -5.86,-4.785 -5.86,-9.277 0,-3.06 0.9277,-5.42 2.783,-7.08 1.856,-1.66067 4.6067,-2.491 8.252,-2.491 1.4327,0 2.8327,0.19533 4.2,0.586 1.6927,0.39067 3.1573,0.586 4.394,0.586 3.06,0 5.469,-0.45567 7.227,-1.367 1.7573,-0.91133 3.336,-2.49 4.736,-4.736 1.4,-2.246 3.0113,-5.55 4.834,-9.912 z"
       id="path5"
       sodipodi:nodetypes="sccsccssssccscsccccsscscccscssccscscscccssccsccscccsccsscsssscssccscscsccsccsccscccsccssccscscssccssccscsccscsccsssccsscccscscssccsscscccssscscsccsscsscccsscccscscscssscscsccscscccsccscsssscssssssscsccsscsssssssscccsssccssssccscscccsscscscccscccccsccsccccccsccccccccscssscscsc" />
    <g
       fill-rule="evenodd"
       id="g9">
      <path
         d="M 446.032,457 H 446 V 563.636 H 570 V 457 h -0.032 C 568.911,423.705 541.55,397 508,397 c -33.55,0 -60.911,26.705 -61.968,60 z M 463,342 c 0,-24.836 20.164,-45 45,-45 24.836,0 45,20.164 45,45 0,24.836 -20.164,45 -45,45 -24.836,0 -45,-20.164 -45,-45 z m -110.83,14.571 h 85.687 v 57.688 c 0,36.047 -29.266,65.312 -65.313,65.312 H 352.17 c -36.047,0 -65.313,-27.557 -65.313,-61.5 0,-33.942 29.266,-61.5 65.313,-61.5 z m -27.36,37.743 v 11.865 c 1.016,-1.172 2.00733,-2.09967 2.974,-2.783 0.96667,-0.684 2.036,-1.19667 3.208,-1.538 1.172,-0.342 2.43167,-0.513 3.779,-0.513 2.03133,0 3.833,0.42967 5.405,1.289 1.57267,0.85933 2.80833,2.10933 3.707,3.75 0.566,0.95667 0.94667,2.026 1.142,3.208 0.19533,1.18133 0.293,2.54367 0.293,4.087 v 15.322 c 0,1.60133 -0.36633,2.81233 -1.099,3.633 -0.732,0.82 -1.70367,1.23 -2.915,1.23 -2.63667,0 -3.955,-1.621 -3.955,-4.863 v -13.506 c 0,-2.55867 -0.38067,-4.52633 -1.142,-5.903 -0.762,-1.37667 -2.20733,-2.065 -4.336,-2.065 -1.426,0 -2.71033,0.405 -3.853,1.215 -1.14267,0.81067 -1.997,1.91933 -2.563,3.326 -0.43,1.19133 -0.645,3.31033 -0.645,6.357 v 10.576 c 0,1.582 -0.35633,2.788 -1.069,3.618 -0.71267,0.83 -1.704,1.245 -2.974,1.245 -2.63667,0 -3.955,-1.621 -3.955,-4.863 v -34.687 c 0,-1.62133 0.34667,-2.83733 1.04,-3.648 0.69333,-0.81067 1.665,-1.216 2.915,-1.216 1.27,0 2.26133,0.41033 2.974,1.231 0.71267,0.82 1.069,2.031 1.069,3.633 z m 35.098,20.713 h 14.502 c -0.19533,-2.73467 -0.93267,-4.78067 -2.212,-6.138 -1.27933,-1.35733 -2.964,-2.036 -5.054,-2.036 -1.992,0 -3.62767,0.68833 -4.907,2.065 -1.27933,1.37733 -2.05567,3.41367 -2.329,6.109 z m 34.805,19.833 0.732,-1.787 -9.844,-24.785 c -0.60533,-1.42533 -0.908,-2.46033 -0.908,-3.105 0,-0.684 0.17567,-1.319 0.527,-1.905 0.352,-0.58533 0.83567,-1.054 1.451,-1.406 0.61467,-0.35133 1.25433,-0.527 1.919,-0.527 1.152,0 2.021,0.366 2.607,1.098 0.586,0.73267 1.10367,1.78267 1.553,3.15 l 6.767,19.687 6.416,-18.31 c 0.508,-1.48467 0.967,-2.64667 1.377,-3.486 0.41067,-0.84 0.84533,-1.40667 1.304,-1.7 0.45867,-0.29267 1.108,-0.439 1.948,-0.439 0.60533,0 1.18633,0.161 1.743,0.483 0.55667,0.32267 0.98633,0.75733 1.289,1.304 0.30333,0.54667 0.455,1.12267 0.455,1.728 -0.0787,0.37133 -0.20567,0.899 -0.381,1.583 -0.176,0.68333 -0.391,1.37667 -0.645,2.08 l -10.43,27.304 c -0.898,2.40267 -1.77667,4.28767 -2.636,5.655 -0.85933,1.36667 -1.997,2.41633 -3.413,3.149 -1.416,0.73267 -3.32533,1.099 -5.728,1.099 -2.34333,0 -4.101,-0.254 -5.273,-0.762 -1.172,-0.508 -1.758,-1.43567 -1.758,-2.783 0,-0.918 0.27833,-1.626 0.835,-2.124 0.55667,-0.498 1.38167,-0.747 2.475,-0.747 0.43,0 0.85,0.0583 1.26,0.175 0.508,0.11733 0.94767,0.176 1.319,0.176 0.918,0 1.64067,-0.13667 2.168,-0.41 0.52733,-0.27333 1.00067,-0.747 1.42,-1.421 0.42,-0.674 0.90367,-1.66533 1.451,-2.974 z m -19.161,-15.292 h -15.644 c 0.0193,1.816 0.38567,3.41733 1.099,4.804 0.71267,1.38667 1.65967,2.43167 2.841,3.135 1.182,0.70333 2.48567,1.055 3.911,1.055 0.95733,0 1.83167,-0.11233 2.623,-0.337 0.79067,-0.22467 1.557,-0.57633 2.299,-1.055 0.74267,-0.47867 1.42633,-0.99133 2.051,-1.538 0.62533,-0.54667 1.436,-1.289 2.432,-2.227 0.41,-0.35133 0.996,-0.527 1.758,-0.527 0.82,0 1.484,0.22467 1.992,0.674 0.508,0.44933 0.762,1.084 0.762,1.904 0,0.72267 -0.28333,1.56733 -0.85,2.534 -0.56667,0.96733 -1.42133,1.89533 -2.564,2.784 -1.142,0.88867 -2.57733,1.62567 -4.306,2.211 -1.72867,0.586 -3.716,0.879 -5.962,0.879 -5.13667,0 -9.131,-1.46467 -11.983,-4.394 -2.85133,-2.93 -4.277,-6.90467 -4.277,-11.924 0,-2.36333 0.35167,-4.55567 1.055,-6.577 0.70267,-2.02133 1.728,-3.75467 3.076,-5.2 1.34733,-1.44533 3.00733,-2.554 4.98,-3.326 1.97267,-0.77133 4.16033,-1.157 6.563,-1.157 3.12467,0 5.80533,0.65933 8.042,1.978 2.236,1.318 3.91067,3.022 5.024,5.112 1.11333,2.09 1.67,4.219 1.67,6.387 0,2.01133 -0.576,3.315 -1.728,3.911 -1.15267,0.596 -2.774,0.894 -4.864,0.894 z"
         id="path7"
         sodipodi:nodetypes="ccccccscsssssscsssssscccscccsscssscsccsssssssscsccsscccccsccsccccccscccccccsssssscssccscccsccccssscccscscccscsscs" />
    </g>
    <text
       xml:space="preserve"
       transform="translate(276.948,260.818)"
       id="text1062"
       style="font-size:48px;font-family:'Arial Rounded MT Bold';-inkscape-font-specification:'Arial Rounded MT Bold, ';white-space:pre;shape-inside:url(#rect1064);fill:#000000;stroke-width:6.71622;stroke-linecap:round;stroke-linejoin:round;fill-opacity:1;font-weight:normal;font-style:normal;font-stretch:normal;font-variant:normal" />
  </g>
  <text
     xml:space="preserve"
     transform="translate(276.948,238.00781)"
     id="text1172"
     style="font-style:normal;font-variant:normal;font-weight:normal;font-stretch:normal;font-size:74.6667px;font-family:'Arial Rounded MT Bold';-inkscape-font-specification:'Arial Rounded MT Bold, ';white-space:pre;shape-inside:url(#rect1174);fill:#ffffff;fill-opacity:1;stroke-width:6.71622;stroke-linecap:round;stroke-linejoin:round"><tspan
       x="341.85938"
       y="285.40566"
       id="tspan2608">un espacio para amigos</tspan></text>
</svg>
